<svg xmlns="http://www.w3.org/2000/svg" width="27" height="42" viewBox="0 0 27 42">
    <g fill="#2C343A" fill-rule="nonzero">
        <path d="M22.908 12.08l-8.415-4.858a.348.348 0 0 0-.475.127L.791 30.258a1.618 1.618 0 0 0-.183.65L.361 40.915c-.007.288.186.4.432.25l8.545-5.22c.164-.1.375-.316.471-.482l13.226-22.909a.349.349 0 0 0-.127-.475zM8.19 35.253l-4.114 2.513a.198.198 0 0 1-.254-.05 3.137 3.137 0 0 0-.879-.773 3.149 3.149 0 0 0-1.11-.375.197.197 0 0 1-.17-.195l.12-4.819c.003-.095.036-.145.08-.114.026.018.052.036.08.053.484.279 1.117.14 1.59-.298.072-.066.117-.045.12.05.028.745.546 1.55 1.4 2.043.854.493 1.81.54 2.469.19.084-.045.124-.015.104.078-.143.63.053 1.247.537 1.526.028.017.057.03.086.045.048.022.022.076-.06.126zM23.9.908l-.28-.161c-2.413-1.394-5.374-.78-6.616 1.369l-2.246 3.891a.347.347 0 0 0 .127.475l8.415 4.859a.349.349 0 0 0 .476-.128l2.246-3.891c1.24-2.15.291-5.02-2.122-6.414z"/>
    </g>
</svg>
