<svg xmlns="http://www.w3.org/2000/svg" width="241" height="176" viewBox="0 0 241 176">
    <g fill="none" fill-rule="evenodd">
        <text fill="#D9D9D9" font-family="OpenSans-Semibold, Open Sans" font-size="20" font-weight="500" transform="translate(-1)">
            <tspan x="0" y="172">Get creative with a friend</tspan>
        </text>
        <path fill="#DEDEDE" fill-rule="nonzero" d="M44.133.013C37.482.013 32 5.448 32 12.045v108.289c0 6.596 5.482 12.032 12.133 12.032h157.734c6.651 0 12.133-5.436 12.133-12.032V12.044C214 5.449 208.518.014 201.867.014H44.133zm0 8.02h157.734c2.31 0 4.044 1.72 4.044 4.012v91.87L170.46 65.437a4.124 4.124 0 0 0-3.223-1.253 4.103 4.103 0 0 0-2.717 1.253l-28.943 30.457-41.898-46.437c-.895-1.01-2.326-1.524-3.665-1.316a4.098 4.098 0 0 0-2.339 1.254L40.09 100.092V12.045c0-2.292 1.734-4.011 4.044-4.011zm93.023 16.044c-8.887 0-16.178 7.23-16.178 16.043 0 8.813 7.29 16.043 16.178 16.043 8.886 0 16.177-7.23 16.177-16.043 0-8.813-7.29-16.043-16.177-16.043zm0 8.021c4.515 0 8.088 3.544 8.088 8.022 0 4.477-3.573 8.021-8.088 8.021-4.516 0-8.09-3.544-8.09-8.021 0-4.478 3.574-8.022 8.09-8.022zM90.58 58.105l59.782 66.24H44.133c-2.31 0-4.044-1.72-4.044-4.011v-8.46L90.58 58.105zm76.845 15.98l38.485 41.737v4.512c0 2.291-1.734 4.01-4.044 4.01h-40.634L141.01 101.91l26.416-27.825z"/>
    </g>
</svg>
