<svg xmlns="http://www.w3.org/2000/svg" width="58" height="51" viewBox="0 0 58 51">
    <g fill="none" fill-rule="evenodd">
        <path fill="#2C343A" fill-rule="nonzero" d="M23.28 46.508c-2.022 0-4.968-.782-8.324-4.125-6.184-6.158-3.55-11.022-3.434-11.226.065-.117.148-.224.242-.319L42.15.578a1.476 1.476 0 0 1 2.081 0c.576.573.576 1.5 0 2.074L14.03 32.729c-.25.651-1.03 3.56 3.008 7.58 3.997 3.98 6.833 3.33 7.526 3.08L54.85 13.226a1.476 1.476 0 0 1 2.082 0c.575.572.575 1.5 0 2.073L26.45 45.657c-.098.097-.208.18-.33.247-.092.05-1.14.604-2.84.604z"/>
        <path fill="#2C343A" fill-rule="nonzero" d="M32.098 26.766c-.377 0-.753-.144-1.041-.43a1.464 1.464 0 0 1 0-2.074L48.51 6.882a1.476 1.476 0 0 1 2.082 0 1.46 1.46 0 0 1 0 2.073L33.14 26.335a1.47 1.47 0 0 1-1.04.43zM31.226 38.596c-2.022 0-4.968-.781-8.324-4.125-6.183-6.159-3.55-11.022-3.434-11.226a1.471 1.471 0 0 1 2.004-.56c.702.392.956 1.273.574 1.975-.088.175-1.547 3.269 2.938 7.737 4.52 4.502 7.56 3.077 7.686 3.014.718-.356 1.603-.08 1.974.625a1.45 1.45 0 0 1-.579 1.957c-.091.05-1.14.603-2.839.603z"/>
        <path fill="#2C343A" fill-rule="nonzero" d="M34.85 34.987c-2.023 0-4.969-.782-8.324-4.125-6.184-6.158-3.55-11.022-3.435-11.225a1.473 1.473 0 0 1 2.004-.56c.703.392.956 1.272.573 1.975-.087.173-1.548 3.268 2.938 7.736 4.558 4.539 7.63 3.046 7.66 3.03a1.474 1.474 0 0 1 2.001.574c.394.71.135 1.601-.578 1.992-.091.05-1.139.603-2.84.603z"/>
        <path fill="#2C343A" fill-rule="nonzero" d="M38.473 31.378c-2.022 0-4.967-.782-8.324-4.124-6.183-6.159-3.55-11.022-3.434-11.227a1.474 1.474 0 0 1 2.005-.56c.701.393.955 1.273.573 1.976-.088.175-1.547 3.27 2.938 7.737 4.554 4.536 7.628 3.043 7.66 3.028a1.475 1.475 0 0 1 2 .575c.393.71.134 1.601-.578 1.992-.09.05-1.14.603-2.84.603z"/>
        <path stroke="#2C343A" stroke-linecap="round" stroke-width="3" d="M1.483 49.5H23.69"/>
    </g>
</svg>
