<?xml version="1.0" encoding="UTF-8" standalone="no"?>
<svg width="40px" height="45px" viewBox="0 0 40 45" version="1.1" xmlns="http://www.w3.org/2000/svg" xmlns:xlink="http://www.w3.org/1999/xlink">
    <!-- Generator: Sketch 44.1 (41455) - http://www.bohemiancoding.com/sketch -->
    <title>icon_eraser</title>
    <desc>Created with Sketch.</desc>
    <defs></defs>
    <g id="Page-1" stroke="none" stroke-width="1" fill="none" fill-rule="evenodd">
        <g id="New-pencil-cursor" transform="translate(-727.000000, -515.000000)" fill-rule="nonzero" fill="#2C343A">
            <g id="icon_eraser" transform="translate(746.648678, 537.223131) rotate(98.000000) translate(-746.648678, -537.223131) translate(726.148678, 516.223131)">
                <g id="Group">
                    <path d="M40.0296583,6.31638737 C39.872158,6.13036341 39.6904746,5.96728241 39.4957695,5.82404396 L32.6345858,0.738769005 C31.9103325,0.202399923 30.9938545,-0.0394312234 30.1015596,0.00521452676 C29.2074044,0.0467598776 28.31883,0.370441566 27.6448032,0.957657196 L3.23969992,22.1123018 C3.04809524,22.2760029 2.87757328,22.4614068 2.72813403,22.6660331 C2.45839929,23.0287798 2.26741469,23.4386526 2.17502279,23.8826298 C1.47743294,26.7994855 0.781083259,29.7213018 0.0816331731,32.6375374 C-0.199263005,33.9056007 0.256495695,34.9783389 1.26784595,35.7565391 C3.66135422,37.518186 6.04990185,39.2798329 8.43286877,41.0365191 L8.48805588,41.0780645 L8.55006386,41.1096886 C10.0357752,41.8593651 11.5283074,41.7303885 12.899304,40.8058494 L12.9439498,40.7779458 L12.9786742,40.7463218 C20.9404997,33.846073 28.9035653,26.9483047 36.8653907,20.0505363 L36.8740718,20.0418551 L36.8839931,20.033174 C37.6956777,19.2859778 38.3169977,18.3924427 38.653701,17.3364467 L38.6642424,17.3085431 L38.6704432,17.2800194 C39.3426098,14.5076424 40.0147763,11.7371255 40.6850827,8.96350831 L40.7669332,8.21073135 C40.7663131,8.19894984 40.4823166,6.83849462 40.0296583,6.31638737 Z M20.508304,25.74783 C20.4940422,25.7596116 20.4804004,25.7701529 20.4630382,25.7825545 L14.0966782,31.1350839 L12.0981608,38.4390046 C11.9834461,38.8699601 11.5363685,39.1229527 11.1072732,39.0045174 L10.3985219,38.8129128 C9.96570619,38.6950976 9.7127136,38.2511204 9.83052878,37.8183047 L11.7099908,30.9453394 L5.05963431,26.1391004 C4.69998799,25.8774267 4.61627721,25.3695813 4.87981115,25.0062145 C4.89035251,24.9950531 4.90213403,24.9783109 4.91081515,24.9671495 L5.3064261,24.4140383 C5.57058012,24.0519116 6.07346489,23.969441 6.43559153,24.2317348 L6.43807185,24.2317348 L13.0040975,28.9796863 L18.9977895,23.9452579 C19.3375932,23.6581609 19.8497792,23.7034267 20.135636,24.0438506 L20.6075168,24.6081233 C20.8958539,24.9504073 20.8505881,25.4613531 20.508304,25.74783 Z M37.2045744,16.1496138 C37.0532749,16.6673805 36.8666309,17.1634444 36.5200062,17.5863389 L21.7385425,30.4957815 L23.0320291,24.0729943 L38.2785527,10.8962972 L37.2045744,16.1496138 Z M38.7876383,8.09911698 L38.7808174,8.11647921 C38.777717,8.12888081 38.7746166,8.14066233 38.7684158,8.15244385 L21.4843097,23.1639572 L12.7070793,16.306494 L29.297316,1.92064122 C29.5013223,1.74701886 29.7877992,1.66330808 30.0482327,1.65152656 C30.2844831,1.63912497 30.5715801,1.6843908 30.7687655,1.82824932 L38.6778842,7.96083917 C38.7020673,7.97882148 38.7274906,8.0030046 38.7498134,8.02656763 C38.7603548,8.03896923 38.7870182,8.07431378 38.7870182,8.0922961 L38.7870182,8.09911698 L38.7876383,8.09911698 Z" id="Shape"></path>
                </g>
            </g>
        </g>
    </g>
</svg>