<?xml version="1.0" encoding="UTF-8"?>
<svg width="127px" height="31px" viewBox="0 0 127 31" version="1.1" xmlns="http://www.w3.org/2000/svg" xmlns:xlink="http://www.w3.org/1999/xlink">
    <!-- Generator: Sketch 44 (41411) - http://www.bohemiancoding.com/sketch -->
    <title>Satori Logo</title>
    <desc>Created with Sketch.</desc>
    <defs>
        <polygon id="path-1" points="0 30.3545182 126.785352 30.3545182 126.785352 0.0182127109 0 0.0182127109"></polygon>
    </defs>
    <g id="Symbols" stroke="none" stroke-width="1" fill="none" fill-rule="evenodd">
        <g id="TopNavigation" transform="translate(-58.000000, -14.000000)">
            <g id="Satori-Logo" transform="translate(58.000000, 14.000000)">
                <polygon id="Fill-1" fill="#FEFEFE" points="10.0869175 0.253030205 15.7789195 10.0309794 32.1506761 10.0309794 26.458674 0.253030205"></polygon>
                <polygon id="Fill-2" fill="#FEFEFE" points="3.32435915 20.8113106 9.01636117 30.5892598 25.4134155 30.5892598 19.7214135 20.8113106"></polygon>
                <polygon id="Fill-3" fill="#FEFEFE" points="8.79282072 0.253030205 4.40889316 7.76906187 -7.66599598e-05 15.3286017 17.5854626 15.3286017"></polygon>
                <polygon id="Fill-4" fill="#FEFEFE" points="17.8896748 15.5127777 26.6823167 30.5883492 35.4749586 15.5127777"></polygon>
                <g id="Group-17" transform="translate(0.000000, 0.234742)">
                    <path d="M51.0512658,9.40033897 C49.3471149,9.40033897 47.1477406,9.87108696 47.1477406,11.8914331 C47.1477406,13.5197 48.9507829,13.9317626 51.091129,14.3043643 C53.8452658,14.7751123 56.5999137,15.3832145 56.5999137,18.3061017 C56.5999137,21.405298 53.5680123,22.2294231 51.0512658,22.2294231 C48.7328131,22.2294231 46.6719378,21.4839668 45.264972,19.2673281 L46.3750082,18.5018883 C47.4845334,20.1890936 49.3670465,20.9150725 51.0512658,20.9150725 C52.7554167,20.9150725 55.1929479,20.4832795 55.1929479,18.2863712 C55.1929479,16.4228568 53.1123966,15.9521088 50.9523744,15.5795071 C48.3367366,15.1087591 45.7607064,14.5790727 45.7607064,11.8914331 C45.7011672,8.98827639 48.713137,8.10597172 51.0313342,8.10597172 C52.9141028,8.10597172 54.7769398,8.65513555 56.0645716,10.4007733 L55.0342618,11.1462297 C54.1427064,9.93027827 52.4980948,9.40033897 51.0512658,9.40033897 Z" id="Fill-5" fill="#FEFEFE"></path>
                    <path d="M70.376705,17.5998785 L66.908864,9.79294937 L63.4407674,17.5998785 L70.376705,17.5998785 Z M62.8860048,18.8552908 L61.459363,22.0329029 L59.9931135,22.0329029 L66.2150913,8.30178366 L67.6023811,8.30178366 L73.824359,22.0329029 L72.358365,22.0329029 L70.9314676,18.8552908 L62.8860048,18.8552908 Z" id="Fill-7" fill="#FEFEFE"></path>
                    <polygon id="Fill-9" fill="#FEFEFE" points="75.1010795 9.59647975 75.1010795 8.30185955 86.277335 8.30185955 86.277335 9.59647975 81.3825966 9.59647975 81.3825966 22.0329788 79.9955624 22.0329788 79.9955624 9.59647975"></polygon>
                    <path d="M96.2459662,20.914946 C100.010737,20.914946 101.873574,18.1096826 101.873574,15.167318 C101.873574,12.12706 100.030924,9.34152709 96.2459662,9.40021249 C92.5205477,9.34152709 90.5388877,11.9702284 90.598427,15.167318 C90.6577107,18.1491435 92.4413324,20.914946 96.2459662,20.914946 M103.260608,15.167318 C103.260608,18.7572457 100.922735,22.2292967 96.2459662,22.2292967 C91.5298455,22.2292967 89.2113928,18.7377682 89.2113928,15.1478405 C89.2113928,11.3031878 91.7478153,8.18426109 96.2459662,8.10584525 C100.942155,8.10584525 103.260608,11.5386883 103.260608,15.167318" id="Fill-11" fill="#FEFEFE"></path>
                    <path d="M109.781969,15.6777545 L114.537441,15.6777545 C116.757003,15.6777545 117.826665,14.3828814 117.826665,12.6567211 C117.826665,10.9303079 116.757003,9.59647975 114.616657,9.59647975 L109.781969,9.59647975 L109.781969,15.6777545 Z M117.965419,22.0329788 L113.368377,16.9721218 L109.781969,16.9721218 L109.781969,22.0329788 L108.394423,22.0329788 L108.394423,8.30185955 L114.616657,8.30185955 C117.688166,8.30185955 119.21421,10.3419361 119.21421,12.6567211 C119.21421,14.7949439 117.985606,16.7171438 115.03292,16.8739755 L119.768973,22.0329788 L117.965419,22.0329788 Z" id="Fill-13" fill="#FEFEFE"></path>
                    <mask id="mask-2" fill="white">
                        <use xlink:href="#path-1"></use>
                    </mask>
                    <g id="Clip-16"></g>
                    <polygon id="Fill-15" fill="#FEFEFE" mask="url(#mask-2)" points="125.398318 22.032827 126.785608 22.032827 126.785608 8.30170778 125.398318 8.30170778"></polygon>
                </g>
            </g>
        </g>
    </g>
</svg>